<?xml version="1.0" encoding="UTF-8"?>
<svg xmlns="http://www.w3.org/2000/svg" xmlns:xlink="http://www.w3.org/1999/xlink" width="915.7pt" height="882.9pt" viewBox="0 0 915.7 882.9" version="1.1">
<defs>
<clipPath id="clip1">
  <path d="M 323 0 L 595 0 L 595 882.898438 L 323 882.898438 Z M 323 0 "/>
</clipPath>
</defs>
<g id="surface1">
<path style=" stroke:none;fill-rule:evenodd;fill:rgb(19.213867%,19.213867%,18.821716%);fill-opacity:1;" d="M 578.160156 837.511719 C 578.160156 844.21875 574.101563 846.402344 566.910156 849.65625 C 559.730469 852.914063 520.230469 864.832031 461.441406 864.832031 C 402.660156 864.832031 356.121094 851.140625 351.023438 849.65625 C 345.917969 848.167969 339.777344 844.21875 339.777344 837.511719 L 339.777344 45.21875 C 339.777344 38.511719 343.96875 36.03125 351.023438 33.078125 C 358.085938 30.128906 405.019531 17.898438 459.070313 17.898438 C 513.128906 17.898438 560.929688 30.921875 566.910156 33.078125 C 572.910156 35.238281 578.160156 38.511719 578.160156 45.21875 Z M 478.46875 804.027344 C 478.46875 807.285156 477.648438 810.320313 476.019531 813.140625 C 474.378906 815.957031 472.160156 818.171875 469.339844 819.789063 C 466.53125 821.410156 463.488281 822.226563 460.234375 822.226563 C 456.984375 822.226563 453.957031 821.410156 451.136719 819.789063 C 448.320313 818.171875 446.097656 815.957031 444.460938 813.140625 C 442.832031 810.320313 442.019531 807.285156 442.019531 804.027344 C 442.019531 800.785156 442.832031 797.75 444.460938 794.925781 C 446.097656 792.105469 448.320313 789.882813 451.136719 788.265625 C 453.957031 786.644531 456.984375 785.828125 460.234375 785.828125 C 463.488281 785.828125 466.53125 786.644531 469.339844 788.265625 C 472.160156 789.882813 474.378906 792.105469 476.019531 794.925781 C 477.648438 797.75 478.46875 800.785156 478.46875 804.027344 Z M 474.949219 804.027344 C 474.949219 799.972656 473.511719 796.519531 470.640625 793.644531 C 467.769531 790.78125 464.296875 789.347656 460.242188 789.347656 C 456.1875 789.347656 452.71875 790.78125 449.84375 793.644531 C 446.96875 796.519531 445.535156 799.972656 445.535156 804.027344 C 445.535156 808.082031 446.96875 811.535156 449.84375 814.410156 C 452.71875 817.273438 456.1875 818.707031 460.242188 818.707031 C 464.296875 818.707031 467.769531 817.273438 470.640625 814.410156 C 473.511719 811.535156 474.949219 808.082031 474.949219 804.027344 Z M 451.984375 794.28125 L 460.699219 794.28125 C 463.164063 794.28125 464.949219 794.777344 466.058594 795.769531 C 467.160156 796.765625 467.71875 798.101563 467.71875 799.777344 C 467.71875 801.082031 467.289063 802.210938 466.449219 803.164063 C 465.609375 804.117188 464.273438 804.808594 462.457031 805.242188 C 463.195313 805.527344 463.75 805.835938 464.101563 806.152344 C 464.589844 806.59375 465.109375 807.261719 465.648438 808.132813 C 465.679688 808.195313 466.71875 810.078125 468.789063 813.773438 L 463.074219 813.773438 C 461.210938 810.0625 459.964844 807.847656 459.328125 807.121094 C 458.695313 806.398438 458.050781 806.03125 457.414063 806.03125 C 457.277344 806.03125 457.074219 806.054688 456.820313 806.101563 L 456.820313 813.773438 L 451.984375 813.773438 Z M 456.820313 802.539063 L 458.921875 802.539063 C 460.3125 802.539063 461.300781 802.308594 461.878906 801.851563 C 462.449219 801.398438 462.734375 800.8125 462.734375 800.09375 C 462.734375 799.378906 462.457031 798.792969 461.910156 798.335938 C 461.363281 797.878906 460.429688 797.652344 459.109375 797.652344 L 456.820313 797.652344 Z M 460.042969 731.9375 C 485.289063 731.9375 489.441406 710.25 489.441406 653.234375 C 489.441406 596.503906 485.289063 574.523438 460.042969 574.523438 C 434.800781 574.523438 430.632813 596.503906 430.632813 653.234375 C 430.632813 710.25 434.800781 731.9375 460.042969 731.9375 Z M 460.042969 543.050781 C 524.191406 543.050781 532.210938 588.789063 532.210938 653.234375 C 532.210938 717.679688 524.191406 763.410156 460.042969 763.410156 C 395.894531 763.410156 387.871094 717.679688 387.871094 653.234375 C 387.871094 588.789063 395.894531 543.050781 460.042969 543.050781 Z M 517.808594 312.039063 L 517.808594 347.082031 L 442.082031 347.082031 L 442.082031 396.980469 L 513.339844 396.980469 L 513.339844 432.023438 L 442.082031 432.023438 L 442.082031 489.046875 L 520.78125 489.046875 L 520.78125 524.085938 L 399.308594 524.085938 L 399.308594 312.039063 Z M 400.785156 289.488281 L 400.785156 77.441406 L 443.5625 77.441406 L 443.5625 254.441406 L 519.289063 254.441406 L 519.289063 289.488281 Z M 400.785156 289.488281 "/>
<path style=" stroke:none;fill-rule:evenodd;fill:rgb(19.213867%,19.213867%,18.821716%);fill-opacity:1;" d="M 200.308594 462.863281 C 182.511719 473.605469 162.140625 481.167969 143.378906 492.171875 C 129.972656 500.03125 117.300781 508.253906 105.570313 518.925781 C 105.148438 519.328125 94.625 529.558594 92.414063 521.902344 C 91.25 517.886719 97.71875 512.671875 100.90625 510.011719 C 119.210938 494.757813 141.203125 481.746094 165.046875 472.203125 C 175.949219 467.847656 187.824219 462.796875 200.308594 462.863281 Z M 200.308594 462.863281 "/>
<path style=" stroke:none;fill-rule:evenodd;fill:rgb(19.213867%,19.213867%,18.821716%);fill-opacity:1;" d="M 201.148438 476.882813 C 198.175781 480.671875 193.347656 482.46875 189.257813 484.523438 C 163.632813 497.410156 137.160156 510.285156 117.476563 529.972656 C 114.4375 533.011719 110.121094 537.746094 104.730469 535.066406 C 102.734375 529.972656 107.667969 526.21875 110.675781 523.601563 C 127.71875 508.730469 146.574219 496.800781 169.296875 486.640625 C 179.554688 482.0625 189.359375 477.914063 201.148438 476.882813 Z M 201.148438 476.882813 "/>
<path style=" stroke:none;fill-rule:evenodd;fill:rgb(19.213867%,19.213867%,18.821716%);fill-opacity:1;" d="M 196.480469 494.714844 C 200.144531 495.023438 196.578125 496.832031 194.359375 498.117188 C 180.628906 506.046875 166.667969 511.835938 153.574219 519.78125 C 142.71875 526.367188 132.492188 533.832031 123 543.144531 C 121.597656 544.5 114.464844 551.230469 111.953125 546.535156 C 109.234375 541.472656 124.40625 531.199219 127.664063 528.707031 C 140.875 518.589844 153.972656 510.480469 170.148438 503.21875 C 177.765625 499.789063 186.820313 495.308594 195.632813 494.714844 C 195.902344 494.699219 196.203125 494.695313 196.480469 494.714844 Z M 196.480469 494.714844 "/>
<path style=" stroke:none;fill-rule:evenodd;fill:rgb(19.213867%,19.213867%,18.821716%);fill-opacity:1;" d="M 84.546875 435.78125 C 78.488281 440.5 57.792969 444.871094 46.570313 443 C 46.160156 441.089844 47.433594 439.125 48.269531 437.476563 C 62.636719 408.882813 91.6875 379.257813 110.457031 354.648438 C 110.453125 354.503906 110.472656 354.363281 110.457031 354.230469 C 110.792969 357.796875 104.890625 367.398438 102.808594 372.492188 C 94.933594 391.828125 86.921875 413.0625 84.546875 435.78125 Z M 84.546875 435.78125 "/>
<path style=" stroke:none;fill-rule:evenodd;fill:rgb(19.213867%,19.213867%,18.821716%);fill-opacity:1;" d="M 239.746094 756.785156 C 239.902344 756.773438 240.125 756.808594 240.300781 756.808594 C 240.277344 756.796875 240.253906 756.785156 240.230469 756.773438 C 240.0625 756.785156 239.910156 756.773438 239.746094 756.785156 Z M 239.746094 756.785156 "/>
<path style=" stroke:none;fill-rule:evenodd;fill:rgb(19.213867%,19.213867%,18.821716%);fill-opacity:1;" d="M 283.503906 745.535156 C 283.65625 745.523438 283.878906 745.554688 284.058594 745.554688 C 284.035156 745.542969 284.007813 745.535156 283.988281 745.523438 C 283.820313 745.535156 283.664063 745.523438 283.503906 745.535156 Z M 283.503906 745.535156 "/>
<path style=" stroke:none;fill-rule:evenodd;fill:rgb(19.213867%,19.213867%,18.821716%);fill-opacity:1;" d="M 308.511719 734.28125 C 308.664063 734.269531 308.886719 734.304688 309.058594 734.304688 C 309.035156 734.292969 309.011719 734.28125 308.988281 734.269531 C 308.828125 734.28125 308.667969 734.269531 308.511719 734.28125 Z M 308.511719 734.28125 "/>
<path style=" stroke:none;fill-rule:evenodd;fill:rgb(19.213867%,19.213867%,18.821716%);fill-opacity:1;" d="M 834.078125 370.84375 C 838.769531 376.792969 845.808594 382.585938 845.109375 392.503906 C 843.089844 394.78125 839.058594 394.328125 836.609375 393.789063 C 826.171875 391.476563 817.761719 381.722656 811.988281 374.667969 C 817.519531 376.007813 832.738281 380.039063 834.078125 370.84375 Z M 834.078125 370.84375 "/>
<path style=" stroke:none;fill-rule:evenodd;fill:rgb(19.213867%,19.213867%,18.821716%);fill-opacity:1;" d="M 672.660156 491.484375 C 677.671875 488.3125 684.070313 489.914063 689.21875 490.628906 C 726.039063 495.792969 759.839844 509.804688 792.019531 518.671875 C 791.730469 514.464844 785.859375 512.539063 782.25 510.164063 C 763.621094 497.917969 742.699219 486.671875 719.800781 477.886719 C 710.460938 474.296875 700.628906 472.628906 690.929688 468.964844 C 694.21875 463.933594 701.800781 466.148438 706.640625 466.84375 C 733.359375 470.722656 756.148438 482.648438 775.449219 494.453125 C 779.449219 496.898438 783.238281 499.5 786.910156 502.105469 C 790.558594 504.671875 793.828125 508.074219 797.960938 509.320313 C 798.570313 504.507813 793.140625 501.988281 790.320313 499.550781 C 771.378906 483.195313 752.28125 465.535156 727.460938 454.519531 C 723.699219 452.863281 719.28125 451.558594 716.839844 448.15625 C 717.039063 446.648438 719.199219 446.542969 722.78125 446.878906 C 733.570313 447.902344 745.089844 455.316406 753.789063 460.46875 C 776.519531 473.945313 795.679688 491.324219 814.53125 510.164063 C 817.511719 513.140625 824.878906 519.140625 825.140625 521.636719 C 825.679688 526.550781 814.941406 534.558594 809.859375 534.808594 C 804.929688 535.054688 797.890625 531.347656 792.429688 529.285156 C 759.769531 516.910156 727.570313 503.386719 690.070313 496.585938 C 684.359375 495.546875 677.300781 495.90625 672.660156 491.484375 Z M 672.660156 491.484375 "/>
<path style=" stroke:none;fill-rule:evenodd;fill:rgb(19.213867%,19.213867%,18.821716%);fill-opacity:1;" d="M 715.558594 301.183594 C 706.699219 305.4375 695.96875 308.402344 684.128906 307.550781 C 663.71875 306.089844 652.109375 291.578125 645.46875 276.972656 C 648.730469 277.953125 650.890625 281.890625 653.96875 283.761719 C 659.648438 287.226563 669.148438 289.289063 678.609375 289.289063 C 715.660156 289.289063 736.808594 266.078125 772.46875 268.472656 C 781.269531 269.058594 789.910156 272.722656 792.859375 280.363281 C 795.679688 287.636719 795.511719 296.078125 797.109375 303.308594 C 802.21875 326.210938 812.480469 340.890625 824.730469 357.246094 C 814.511719 360.757813 809.558594 352.84375 803.070313 348.757813 C 796.078125 344.359375 788.710938 342.753906 780.128906 340.257813 C 776.269531 331.515625 771.738281 323.445313 764.828125 317.746094 C 756.011719 323.285156 743.628906 330.851563 728.308594 333.042969 C 723.441406 333.738281 715.828125 334.148438 715.140625 330.066406 C 714.019531 323.570313 727.691406 319.855469 731.269531 317.320313 C 749.78125 319.242188 757.398438 303.335938 761.019531 287.585938 C 759.71875 285.902344 756.421875 286.230469 754.628906 285.046875 C 749.511719 295.480469 744.878906 306.429688 734.679688 311.796875 C 728.808594 304.9375 738.988281 291.519531 732.550781 283.761719 C 728.949219 284.265625 726.109375 285.542969 723.210938 286.746094 C 722.910156 294.042969 721.800781 303.75 724.46875 309.257813 C 721.679688 308.082031 718.710938 303.414063 715.558594 301.183594 Z M 715.558594 301.183594 "/>
<path style=" stroke:none;fill-rule:evenodd;fill:rgb(19.213867%,19.213867%,18.821716%);fill-opacity:1;" d="M 830.25 401.851563 C 836.289063 403.65625 849.828125 416.113281 857.429688 408.652344 C 860.941406 411.273438 865.308594 419.546875 861.261719 424.367188 C 845.039063 422.75 839.328125 410.609375 830.25 401.851563 Z M 830.25 401.851563 "/>
<path style=" stroke:none;fill-rule:evenodd;fill:rgb(19.213867%,19.213867%,18.821716%);fill-opacity:1;" d="M 848.089844 429.890625 C 854.808594 432.273438 861.691406 440.300781 872.300781 438.808594 C 868.050781 452.328125 852.878906 433.917969 848.089844 429.890625 Z M 848.089844 429.890625 "/>
<path style=" stroke:none;fill-rule:evenodd;fill:rgb(19.213867%,19.213867%,18.821716%);fill-opacity:1;" d="M 721.941406 177.144531 C 723.179688 181.035156 724.808594 184.945313 727.019531 188.195313 C 724.808594 184.945313 723.519531 180.914063 721.941406 177.144531 Z M 721.941406 177.144531 "/>
<path style=" stroke:none;fill-rule:evenodd;fill:rgb(19.213867%,19.213867%,18.821716%);fill-opacity:1;" d="M 708.070313 513.640625 C 707.558594 513.527344 707.050781 513.421875 706.539063 513.3125 C 707.050781 513.421875 707.570313 513.527344 708.070313 513.640625 Z M 708.070313 513.640625 "/>
<path style=" stroke:none;fill-rule:evenodd;fill:rgb(19.213867%,19.213867%,18.821716%);fill-opacity:1;" d="M 713.960938 515.105469 C 713.410156 514.949219 712.859375 514.796875 712.28125 514.648438 C 712.859375 514.796875 713.410156 514.949219 713.960938 515.105469 Z M 713.960938 515.105469 "/>
<path style=" stroke:none;fill-rule:evenodd;fill:rgb(19.213867%,19.213867%,18.821716%);fill-opacity:1;" d="M 711.058594 514.34375 C 710.550781 514.214844 710.019531 514.089844 709.488281 513.964844 C 710.019531 514.089844 710.550781 514.214844 711.058594 514.34375 Z M 711.058594 514.34375 "/>
<path style=" stroke:none;fill-rule:evenodd;fill:rgb(19.213867%,19.213867%,18.821716%);fill-opacity:1;" d="M 717.25 516.113281 C 716.511719 515.863281 715.710938 515.613281 714.878906 515.367188 C 715.710938 515.609375 716.511719 515.863281 717.25 516.113281 Z M 717.25 516.113281 "/>
<path style=" stroke:none;fill-rule:evenodd;fill:rgb(19.213867%,19.213867%,18.821716%);fill-opacity:1;" d="M 704.929688 512.984375 C 704.460938 512.890625 703.980469 512.800781 703.5 512.714844 C 703.980469 512.800781 704.460938 512.890625 704.929688 512.984375 Z M 704.929688 512.984375 "/>
<path style=" stroke:none;fill-rule:evenodd;fill:rgb(19.213867%,19.213867%,18.821716%);fill-opacity:1;" d="M 692.300781 510.960938 C 692.140625 510.941406 691.988281 510.917969 691.828125 510.898438 C 691.988281 510.917969 692.140625 510.941406 692.300781 510.960938 Z M 692.300781 510.960938 "/>
<path style=" stroke:none;fill-rule:evenodd;fill:rgb(19.213867%,19.213867%,18.821716%);fill-opacity:1;" d="M 685.320313 510.179688 C 685.21875 510.167969 685.109375 510.164063 685.011719 510.152344 C 685.109375 510.160156 685.21875 510.167969 685.320313 510.179688 Z M 685.320313 510.179688 "/>
<path style=" stroke:none;fill-rule:evenodd;fill:rgb(19.213867%,19.213867%,18.821716%);fill-opacity:1;" d="M 701.628906 512.367188 C 701.390625 512.324219 701.148438 512.289063 700.921875 512.246094 C 701.148438 512.289063 701.390625 512.324219 701.628906 512.367188 Z M 701.628906 512.367188 "/>
<path style=" stroke:none;fill-rule:evenodd;fill:rgb(19.213867%,19.213867%,18.821716%);fill-opacity:1;" d="M 688.921875 510.554688 C 688.738281 510.535156 688.550781 510.515625 688.359375 510.496094 C 688.539063 510.515625 688.738281 510.535156 688.921875 510.554688 Z M 688.921875 510.554688 "/>
<path style=" stroke:none;fill-rule:evenodd;fill:rgb(19.213867%,19.213867%,18.821716%);fill-opacity:1;" d="M 642.511719 501.671875 C 642.558594 501.699219 642.609375 501.757813 642.660156 501.789063 C 642.609375 501.757813 642.558594 501.699219 642.511719 501.671875 Z M 642.511719 501.671875 "/>
<path style=" stroke:none;fill-rule:evenodd;fill:rgb(19.213867%,19.213867%,18.821716%);fill-opacity:1;" d="M 642.660156 501.789063 L 642.679688 501.792969 C 642.660156 501.792969 642.660156 501.789063 642.660156 501.789063 Z M 642.660156 501.789063 "/>
<path style=" stroke:none;fill-rule:evenodd;fill:rgb(19.213867%,19.213867%,18.821716%);fill-opacity:1;" d="M 678.53125 756.808594 C 678.699219 756.808594 678.921875 756.773438 679.078125 756.785156 C 678.921875 756.769531 678.761719 756.785156 678.601563 756.773438 C 678.578125 756.785156 678.550781 756.796875 678.53125 756.808594 Z M 678.53125 756.808594 "/>
<path style=" stroke:none;fill-rule:evenodd;fill:rgb(19.213867%,19.213867%,18.821716%);fill-opacity:1;" d="M 634.839844 745.523438 C 634.820313 745.535156 634.789063 745.542969 634.769531 745.554688 C 634.941406 745.554688 635.160156 745.523438 635.320313 745.535156 C 635.160156 745.519531 635 745.535156 634.839844 745.523438 Z M 634.839844 745.523438 "/>
<path style=" stroke:none;fill-rule:evenodd;fill:rgb(19.213867%,19.213867%,18.821716%);fill-opacity:1;" d="M 609.828125 734.269531 C 609.808594 734.28125 609.789063 734.292969 609.761719 734.304688 C 609.929688 734.304688 610.160156 734.269531 610.320313 734.28125 C 610.148438 734.265625 610 734.28125 609.828125 734.269531 Z M 609.828125 734.269531 "/>
<path style=" stroke:none;fill-rule:evenodd;fill:rgb(19.213867%,19.213867%,18.821716%);fill-opacity:1;" d="M 213.46875 515.863281 C 213.976563 515.753906 214.488281 515.644531 215.007813 515.535156 C 214.488281 515.644531 213.976563 515.753906 213.46875 515.863281 Z M 213.46875 515.863281 "/>
<path style=" stroke:none;fill-rule:evenodd;fill:rgb(19.213867%,19.213867%,18.821716%);fill-opacity:1;" d="M 207.585938 517.335938 C 208.128906 517.183594 208.6875 517.027344 209.265625 516.878906 C 208.6875 517.027344 208.128906 517.183594 207.585938 517.335938 Z M 207.585938 517.335938 "/>
<path style=" stroke:none;fill-rule:evenodd;fill:rgb(19.213867%,19.213867%,18.821716%);fill-opacity:1;" d="M 210.472656 516.570313 C 210.992188 516.445313 211.515625 516.316406 212.054688 516.1875 C 211.515625 516.316406 210.992188 516.445313 210.472656 516.570313 Z M 210.472656 516.570313 "/>
<path style=" stroke:none;fill-rule:evenodd;fill:rgb(19.213867%,19.213867%,18.821716%);fill-opacity:1;" d="M 204.292969 518.351563 C 205.039063 518.09375 205.835938 517.847656 206.664063 517.597656 C 205.835938 517.847656 205.039063 518.09375 204.292969 518.351563 Z M 204.292969 518.351563 "/>
<path style=" stroke:none;fill-rule:evenodd;fill:rgb(19.213867%,19.213867%,18.821716%);fill-opacity:1;" d="M 216.613281 515.207031 C 217.082031 515.113281 217.558594 515.023438 218.042969 514.933594 C 217.558594 515.023438 217.082031 515.113281 216.613281 515.207031 Z M 216.613281 515.207031 "/>
<path style=" stroke:none;fill-rule:evenodd;fill:rgb(19.213867%,19.213867%,18.821716%);fill-opacity:1;" d="M 229.234375 513.171875 C 229.398438 513.15625 229.550781 513.132813 229.710938 513.113281 C 229.550781 513.132813 229.398438 513.15625 229.234375 513.171875 Z M 229.234375 513.171875 "/>
<path style=" stroke:none;fill-rule:evenodd;fill:rgb(19.213867%,19.213867%,18.821716%);fill-opacity:1;" d="M 236.214844 512.390625 C 236.328125 512.378906 236.429688 512.371094 236.53125 512.359375 C 236.429688 512.371094 236.328125 512.378906 236.214844 512.390625 Z M 236.214844 512.390625 "/>
<path style=" stroke:none;fill-rule:evenodd;fill:rgb(19.213867%,19.213867%,18.821716%);fill-opacity:1;" d="M 219.910156 514.585938 C 220.144531 514.546875 220.386719 514.503906 220.628906 514.460938 C 220.386719 514.503906 220.144531 514.546875 219.910156 514.585938 Z M 219.910156 514.585938 "/>
<path style=" stroke:none;fill-rule:evenodd;fill:rgb(19.213867%,19.213867%,18.821716%);fill-opacity:1;" d="M 232.621094 512.765625 C 232.808594 512.742188 232.992188 512.722656 233.175781 512.703125 C 232.992188 512.722656 232.808594 512.742188 232.621094 512.765625 Z M 232.621094 512.765625 "/>
<path style=" stroke:none;fill-rule:evenodd;fill:rgb(19.213867%,19.213867%,18.821716%);fill-opacity:1;" d="M 279.042969 503.839844 C 278.984375 503.867188 278.933594 503.925781 278.875 503.957031 C 278.933594 503.925781 278.984375 503.867188 279.042969 503.839844 Z M 279.042969 503.839844 "/>
<path style=" stroke:none;fill-rule:evenodd;fill:rgb(19.213867%,19.213867%,18.821716%);fill-opacity:1;" d="M 272.582031 511.359375 C 272.648438 511.3125 272.699219 511.246094 272.761719 511.195313 C 272.699219 511.246094 272.648438 511.3125 272.582031 511.359375 Z M 272.582031 511.359375 "/>
<path style=" stroke:none;fill-rule:evenodd;fill:rgb(19.213867%,19.213867%,18.821716%);fill-opacity:1;" d="M 614.96875 302.304688 C 624.960938 318.066406 637.511719 331.300781 657.019531 337.558594 C 633.011719 348.484375 610.550781 332.203125 614.96875 302.304688 Z M 899.910156 482.140625 C 897.308594 482.503906 892.539063 476.5625 889.300781 474.492188 C 886.570313 475.3125 884.941406 479.46875 882.910156 479.589844 C 871.269531 471.039063 855.339844 459.859375 835.769531 462.171875 C 831.449219 462.683594 824.410156 468.226563 820.058594 471.089844 C 815.5 474.078125 811.171875 477.265625 806.890625 480.011719 C 828.269531 482.035156 842.070313 490.75 848.519531 509.320313 C 850.210938 514.195313 853.738281 523.539063 852.339844 528.855469 C 851.671875 531.382813 845.800781 534.847656 842.988281 537.351563 C 839.160156 540.785156 836.511719 543.601563 834.078125 545.855469 C 827.050781 552.332031 822.429688 559.285156 816.648438 563.691406 C 804.988281 572.601563 788.648438 563.273438 778.421875 556.894531 C 762.328125 546.859375 752 533.761719 731.691406 528.855469 C 698.53125 520.851563 657.128906 523.304688 630.390625 537.632813 C 618.980469 550.933594 611.199219 570.550781 606.980469 592.777344 C 605.710938 599.476563 602.988281 611.503906 603.769531 618.375 C 603.949219 619.929688 604.601563 621.539063 605.480469 623.144531 C 610.628906 631.769531 621.808594 638.371094 631.039063 643.984375 C 650.859375 656.035156 672.96875 666.242188 697.289063 673.707031 C 712.078125 678.25 729.558594 682.222656 746.988281 679.648438 C 748.730469 684.535156 755.558594 693.191406 751.230469 700.042969 C 749.738281 702.441406 739.828125 706.148438 737.230469 708.117188 C 729.261719 714.121094 723.46875 723.246094 717.679688 732.746094 C 713.671875 739.332031 707.039063 750.089844 698.140625 741.671875 C 695.691406 739.339844 694.238281 734.570313 693.890625 731.476563 C 691.988281 713.902344 701.160156 695.308594 705.371094 682.207031 C 699.511719 684.441406 691.28125 686.816406 682.429688 689 C 676.339844 690.5 661.769531 694.492188 658.21875 689 C 652.988281 680.960938 664.050781 672.398438 666.289063 667.335938 C 657.730469 668.960938 644.738281 672.570313 634.421875 672.433594 C 631.488281 672.390625 626.808594 671.832031 625.511719 669.894531 C 621.011719 663.136719 629.910156 654.550781 631.449219 649.492188 C 624.640625 651.820313 615.851563 656.390625 606.398438 656.292969 C 589.308594 656.121094 598.949219 640.207031 605.910156 632.910156 C 603.160156 633.398438 600.328125 633.785156 597.511719 634.136719 C 594.210938 635.128906 590.75 635.925781 587.328125 635.910156 L 587.328125 740.003906 L 589.371094 739.507813 C 595 738.144531 606.148438 734.050781 610.609375 734.050781 C 610.628906 734.042969 609.929688 734.304688 609.761719 734.304688 C 602.609375 737.695313 595.089844 741.566406 587.328125 745.621094 L 587.328125 756.828125 C 596.671875 754.96875 605.691406 752.863281 614.378906 750.757813 C 620.011719 749.398438 630.320313 745.550781 634.769531 745.554688 L 634.839844 745.523438 C 635.011719 745.535156 635.160156 745.523438 635.320313 745.535156 C 635.160156 745.523438 634.941406 745.558594 634.769531 745.558594 C 620.160156 752.484375 604.039063 761.429688 587.328125 769.8125 L 587.328125 774 C 612.820313 772.550781 636.519531 767.25 658.140625 762.011719 C 663.761719 760.652344 674.078125 756.804688 678.53125 756.808594 L 678.601563 756.777344 C 678.761719 756.789063 678.921875 756.777344 679.078125 756.789063 C 678.921875 756.777344 678.699219 756.808594 678.53125 756.808594 C 651.390625 769.667969 619.078125 789.496094 587.328125 799.75 L 587.328125 814.941406 C 622.300781 806.203125 651.429688 794.699219 671.46875 782.929688 C 691.820313 770.972656 717.160156 759.128906 722.878906 753.417969 C 730.148438 746.152344 737.269531 735.644531 743.210938 728.101563 C 750.839844 718.429688 766.96875 711.367188 765.25 693.671875 C 764.46875 685.597656 759.949219 678.628906 756.761719 671.585938 C 763.859375 659.914063 760.808594 637.296875 756.328125 624.863281 C 754.921875 620.898438 753.261719 613.167969 749.109375 613.386719 C 745.039063 613.609375 742.378906 628.597656 741.039063 632.511719 C 738.339844 640.472656 736.140625 645.84375 732.988281 652.046875 C 707.941406 633.855469 692.929688 603.496094 694.75 559.863281 C 704 555.710938 717.699219 553.070313 732.128906 553.070313 C 745.988281 553.070313 760.949219 553.667969 768.230469 561.140625 C 764.011719 571.160156 758.761719 579.960938 750.808594 587.054688 C 748.398438 589.214844 743.128906 591.4375 744.429688 594.695313 C 745.960938 598.417969 754.070313 596.242188 758.46875 595.554688 C 774.269531 593.050781 787.261719 588.941406 797.121094 581.957031 C 821.878906 587.117188 830.519531 569.679688 842.140625 559.019531 C 852.839844 549.203125 864.21875 540.089844 873.578125 532.253906 C 884.089844 523.460938 895.699219 514.539063 904.589844 505.070313 C 915.261719 493.679688 915.75 478.6875 909.980469 461.320313 C 905.460938 447.707031 900.25 434.957031 893.121094 422.242188 C 875.511719 390.835938 857.019531 361.078125 837.46875 332.621094 C 833.671875 327.085938 828.128906 321.035156 825.140625 315.625 C 822.210938 310.300781 821.140625 302.714844 820.46875 295.660156 C 819.761719 288.011719 820.671875 279.414063 819.199219 271.878906 C 817.460938 262.90625 810.019531 256.726563 804.769531 249.789063 C 795.578125 237.65625 786.609375 224.234375 778.230469 211.335938 C 776.78125 206.320313 778.578125 189.085938 778.511719 184.542969 C 778.25 170.171875 771.769531 157.507813 766.179688 151.058594 C 761.390625 145.519531 739.328125 118.558594 716.160156 109.601563 C 691.230469 96 651.929688 77.929688 587.328125 66.511719 L 587.328125 614.644531 L 588.101563 613.269531 C 594.121094 582.65625 580.351563 541.765625 621.921875 526.636719 C 630.929688 523.117188 643.710938 521.558594 650.558594 520.515625 C 670.429688 515.371094 693.410156 513.171875 717.25 516.113281 C 716.511719 515.863281 715.710938 515.613281 714.878906 515.367188 C 714.578125 515.277344 714.269531 515.195313 713.960938 515.105469 C 713.410156 514.953125 712.859375 514.796875 712.28125 514.648438 C 711.890625 514.546875 711.46875 514.445313 711.058594 514.34375 C 710.550781 514.21875 710.019531 514.089844 709.488281 513.964844 C 709.019531 513.851563 708.550781 513.75 708.070313 513.644531 C 707.570313 513.53125 707.050781 513.421875 706.539063 513.3125 C 706 513.203125 705.46875 513.09375 704.929688 512.988281 C 704.460938 512.894531 703.980469 512.800781 703.5 512.71875 C 702.878906 512.597656 702.269531 512.480469 701.628906 512.367188 C 701.390625 512.328125 701.148438 512.289063 700.921875 512.25 C 698.160156 511.773438 695.269531 511.339844 692.300781 510.960938 C 692.140625 510.941406 691.988281 510.917969 691.828125 510.902344 C 690.859375 510.78125 689.890625 510.664063 688.921875 510.554688 C 688.738281 510.539063 688.539063 510.515625 688.359375 510.496094 C 687.351563 510.382813 686.339844 510.277344 685.320313 510.179688 C 685.21875 510.171875 685.121094 510.164063 685.011719 510.152344 C 679.378906 509.613281 673.628906 509.289063 668.128906 509.214844 C 651.46875 509.453125 633.761719 512.96875 617.929688 519.101563 C 625.269531 510.914063 634.179688 505.121094 642.660156 501.792969 C 642.609375 501.761719 642.558594 501.699219 642.511719 501.675781 C 632.871094 501.238281 619.148438 505.8125 596.070313 519.976563 C 596.609375 518.15625 595.039063 510.082031 620.988281 499.179688 C 627.609375 495.070313 642.75 493.144531 650.988281 491.0625 C 650.988281 491.050781 651 491.039063 651 491.03125 C 632.789063 487.773438 610.828125 492.191406 599.03125 499.28125 C 604.039063 486.605469 616.558594 478.1875 630.589844 473.820313 C 621.089844 471.179688 608.070313 469.582031 597.589844 471.222656 C 596.480469 470.515625 599.449219 468.75 600.699219 467.953125 C 609.75 462.128906 624.011719 456.433594 638.628906 456.113281 C 637.371094 455.445313 636.109375 454.777344 634.851563 454.105469 C 621.761719 446.539063 614.289063 437.660156 614.261719 433.101563 C 622.078125 439.039063 636.460938 449.980469 673.519531 457.925781 C 671.878906 441.832031 685.78125 437.628906 699.839844 435.84375 C 678.910156 431.148438 656.589844 427.832031 635.28125 423.519531 C 630.238281 422.433594 614.300781 418.335938 614.410156 415.546875 C 655.511719 420.488281 724.570313 419.261719 748.691406 399.726563 C 714.910156 407.78125 669.28125 411.84375 652.398438 405.597656 C 675.160156 398.695313 722.75 394.589844 744.878906 370.84375 C 714.910156 380.902344 700.839844 380.277344 675.519531 382.152344 C 694.28125 375.902344 721.429688 361.144531 732.558594 346.210938 C 711.351563 353.890625 689.921875 361.355469 662.46875 362.777344 C 676.160156 356.210938 690.53125 350.34375 700.699219 340.257813 C 689.121094 341.425781 677.289063 342.34375 665.441406 343.238281 C 668.160156 338.292969 671.449219 333.949219 674.359375 329.21875 C 648.78125 318.558594 623.089844 307.453125 611.839844 267.601563 C 620.230469 276.222656 629.308594 280.890625 634.75 278.273438 C 634.789063 278.261719 634.828125 278.257813 634.851563 278.242188 C 629.789063 254.261719 630.78125 218.390625 651.859375 211.554688 C 641.140625 201.496094 624.5 199.617188 612.078125 199.617188 C 624.738281 191.648438 654.761719 198.804688 666.710938 203.058594 C 661.460938 193.585938 647.378906 181.382813 636.929688 177.113281 C 654.039063 176.152344 676.75 184.824219 686.679688 192.4375 C 682.839844 185.886719 678.679688 178.046875 673.519531 172.050781 C 671.949219 170.242188 661.769531 156.953125 655.679688 150.390625 C 668.121094 155.777344 692.25 168.207031 701.539063 188.195313 C 704.101563 187.351563 707.839844 187.691406 710.46875 186.921875 C 699.75 145.699219 666.03125 125.28125 660.839844 114.761719 C 669.558594 122.089844 709.128906 137.261719 721.941406 177.148438 C 723.519531 180.917969 724.808594 184.945313 727.03125 188.195313 C 731.519531 194.734375 740.988281 196.03125 751.671875 195.839844 C 753.699219 200.550781 755.898438 205.535156 758.398438 210.398438 C 758.679688 210.945313 758.980469 211.496094 759.269531 212.042969 C 759.730469 212.910156 760.191406 213.78125 760.679688 214.640625 C 760.789063 214.832031 760.890625 215.019531 761.011719 215.210938 C 763.101563 218.847656 765.390625 222.34375 768 225.511719 C 768 225.527344 768.011719 225.539063 768.011719 225.554688 C 770.828125 228.996094 773.96875 232.066406 777.578125 234.492188 C 783.21875 250.660156 790.269531 260.058594 802.851563 269.296875 C 803.359375 286.527344 804.578125 310.875 811.558594 322.847656 C 815.261719 329.179688 820.511719 334.992188 824.730469 341.109375 C 845.800781 371.589844 865.121094 403.382813 883.769531 437.109375 C 891.089844 450.335938 900.550781 464.847656 899.910156 482.140625 Z M 759.308594 588.761719 C 765.070313 581.625 770.140625 573.816406 774.171875 564.964844 C 780.640625 568.839844 786.859375 572.953125 795.421875 574.734375 C 786.148438 582.175781 773.289063 586.011719 759.308594 588.761719 Z M 698.988281 654.597656 C 688.039063 651.585938 679.421875 646.058594 671.808594 638.460938 C 664.359375 631.007813 654.328125 619.09375 656.089844 603.203125 C 656.429688 600.128906 658.839844 595.796875 658.21875 591.726563 C 657.371094 586.269531 650 582.652344 645.890625 578.554688 C 641.460938 574.125 633.96875 564.558594 639.960938 556.894531 C 648.359375 546.097656 671.660156 556.355469 676.058594 564.542969 C 682.289063 576.140625 678.550781 597.632813 680.730469 616.792969 C 682.808594 635.066406 690.691406 646.125 698.988281 654.597656 Z M 749.960938 627.414063 C 755.121094 637.742188 755.800781 657.957031 750.808594 669.035156 C 744.101563 670.832031 735.519531 672.449219 728.308594 670.308594 C 738.199219 658.679688 745.328125 644.292969 749.960938 627.414063 Z M 330.613281 769.367188 C 314.207031 761.113281 298.40625 752.359375 284.054688 745.554688 C 283.878906 745.554688 283.65625 745.523438 283.503906 745.535156 C 283.664063 745.519531 283.816406 745.535156 283.988281 745.523438 C 284.007813 745.535156 284.035156 745.542969 284.054688 745.554688 C 288.511719 745.554688 298.816406 749.394531 304.445313 750.757813 C 312.855469 752.796875 321.585938 754.835938 330.613281 756.652344 L 330.613281 745.160156 C 323.15625 741.273438 315.9375 737.5625 309.058594 734.304688 C 308.886719 734.304688 308.664063 734.269531 308.511719 734.28125 C 308.667969 734.265625 308.828125 734.28125 308.988281 734.269531 C 309.011719 734.28125 309.035156 734.292969 309.058594 734.304688 C 313.503906 734.292969 323.828125 738.144531 329.449219 739.507813 L 330.613281 739.789063 L 330.613281 636.65625 C 322.675781 639.210938 314.308594 641.34375 305.589844 643.125 C 307.1875 647.195313 313.011719 650.714844 317.0625 653.738281 C 302.960938 659.738281 289.679688 666.578125 271.179688 668.1875 C 272.648438 671.253906 277.46875 674.640625 281.378906 676.679688 C 273.519531 678.699219 262.089844 681.617188 253.351563 678.808594 C 252.390625 683.660156 252.171875 689.242188 251.210938 694.097656 C 241.503906 694.332031 232.148438 694.191406 227.433594 689.425781 C 226.355469 692.34375 225.925781 696.089844 226.582031 699.621094 C 218.195313 698.085938 210.714844 695.664063 205.773438 690.699219 C 206.136719 700.386719 207.40625 709.164063 209.171875 717.460938 C 207.851563 717.847656 207.03125 715.839844 206.1875 714.910156 C 198.738281 706.667969 189.75 696.800781 183.671875 686.875 C 185.207031 704.460938 188.160156 720.628906 194.300781 733.597656 C 194.035156 734.921875 192.878906 732.59375 192.601563 732.328125 C 180.058594 720.371094 173.910156 698.988281 174.328125 674.132813 C 181.265625 678.339844 193.785156 678.394531 202.363281 675.410156 L 210.011719 672.007813 C 211.988281 671.667969 213.761719 672.441406 215.535156 672.429688 C 226.050781 672.375 234.863281 667.003906 238.914063 659.265625 C 263.503906 663.011719 280.046875 652.222656 289.019531 637.601563 C 297.113281 635.996094 303.210938 632.53125 308.988281 627.414063 C 313.523438 623.394531 320.085938 616.28125 320.886719 609.566406 C 321.714844 602.609375 317.957031 590.554688 317.488281 583.65625 C 315.457031 553.746094 303.214844 547.207031 290.449219 533.746094 C 224.808594 516.867188 173.238281 534.375 134.410156 558.59375 C 132.179688 559.984375 129.195313 562.207031 128.039063 562.417969 C 122.28125 563.425781 115.203125 559.382813 109.777344 560.292969 C 101.316406 542.691406 89.558594 528.40625 76.648438 515.261719 C 79.132813 514.785156 80.699219 513.378906 83.433594 513.140625 C 89.558594 494.347656 102.941406 482.816406 125.480469 480.4375 C 123.195313 465.148438 125.835938 448.886719 131.003906 438.378906 C 125.386719 441.535156 119.613281 448.226563 114.011719 452.828125 C 79.695313 455.179688 41.75 465.96875 21.664063 482.5625 C 12.324219 472.835938 14.617188 450.375 24.214844 442.628906 C 47.066406 390.917969 93.308594 345.757813 127.613281 303.308594 C 129.820313 300.570313 133.671875 296.042969 133.972656 294.386719 C 134.515625 291.558594 133 287.171875 132.714844 283.757813 C 129.371094 245.011719 147.648438 218.808594 173.0625 203.910156 C 172.476563 194.714844 171.992188 185.441406 170.9375 176.722656 C 175.855469 167.878906 179.078125 163.167969 181.753906 160.367188 C 197.109375 137.558594 231.183594 112.148438 256.84375 106.480469 C 235.277344 122.421875 212.621094 143.820313 210.363281 155.8125 C 225.683594 145.699219 243.9375 131.679688 260.441406 135.859375 C 247.148438 140.839844 230.242188 156.707031 218.476563 174.113281 C 219.714844 177.292969 220.703125 180.722656 221.484375 184.359375 C 232.339844 172.699219 275.128906 143.359375 274.425781 146.171875 C 264.539063 154.839844 241.34375 174.632813 237.199219 189.042969 C 239.101563 191.238281 242.824219 191.628906 245.269531 193.289063 C 255.496094 186.238281 275.363281 176.175781 287.554688 174.535156 C 268.097656 187.660156 268.84375 191.945313 261.832031 200.511719 C 263.285156 203.023438 265.269531 205.003906 267.789063 206.449219 C 284.558594 197.230469 298.558594 207.324219 298.800781 225.144531 C 299.027344 242.816406 282.867188 251.804688 264.800781 252.332031 C 265.484375 258.652344 268.074219 263.058594 270.984375 267.15625 C 271.132813 267.140625 271.28125 267.164063 271.425781 267.148438 C 273.375 270 276.535156 274.789063 277.816406 276.773438 C 270.121094 280.722656 262.714844 284.398438 251.914063 284.421875 C 233.34375 284.457031 220.992188 274.078125 204.761719 267.433594 C 189.148438 261.042969 170.324219 260.378906 151.664063 267.007813 C 146.660156 273.410156 143.546875 287.550781 147.414063 297.59375 C 145.210938 301.558594 141.269531 302.953125 138.5 306.511719 C 132.015625 314.808594 131.152344 327.722656 124.054688 335.816406 C 121.65625 338.558594 119.027344 340.074219 116.40625 343.035156 C 145.136719 342.457031 162.636719 330.644531 176.71875 315.425781 C 195.492188 331.832031 220.707031 312.539063 229.402344 299.289063 C 245.101563 312.992188 278.375 308.699219 293.113281 296.742188 C 291.816406 298.117188 290.417969 299.445313 288.925781 300.722656 C 293.382813 297.648438 297.359375 294.425781 300.5625 290.675781 C 287.382813 313.394531 267.273438 322.140625 247.191406 330.554688 C 250.097656 335.304688 253.394531 339.671875 256.105469 344.636719 C 244.253906 343.742188 232.421875 342.816406 220.847656 341.644531 C 231.015625 351.78125 245.386719 357.671875 259.082031 364.269531 C 231.617188 362.839844 210.195313 355.34375 188.988281 347.628906 C 200.117188 362.628906 227.265625 377.460938 246.019531 383.742188 C 220.699219 381.859375 206.636719 382.484375 176.667969 372.378906 C 198.796875 396.234375 246.390625 400.367188 269.152344 407.296875 C 252.273438 413.578125 206.636719 409.496094 172.847656 401.398438 C 196.972656 421.023438 266.039063 422.261719 307.144531 417.296875 C 307.238281 420.097656 291.304688 424.214844 286.265625 425.308594 C 264.953125 429.640625 242.640625 432.96875 221.703125 437.6875 C 235.769531 439.488281 249.671875 443.707031 248.03125 459.882813 C 285.09375 451.890625 299.464844 440.902344 307.28125 434.933594 C 307.253906 439.519531 299.78125 448.4375 286.691406 456.039063 C 285.4375 456.714844 284.167969 457.386719 282.910156 458.054688 C 297.539063 458.378906 311.792969 464.101563 320.851563 469.953125 C 322.101563 470.753906 325.070313 472.53125 323.949219 473.238281 C 313.480469 471.589844 300.460938 473.195313 290.953125 475.851563 C 304.988281 480.238281 317.507813 488.695313 322.519531 501.433594 C 310.710938 494.304688 288.75 489.871094 270.539063 493.148438 C 270.542969 493.15625 270.542969 493.164063 270.550781 493.175781 C 278.792969 495.265625 293.925781 497.203125 300.558594 501.332031 C 326.503906 512.28125 324.929688 520.394531 325.472656 522.234375 C 302.390625 507.996094 288.675781 503.402344 279.042969 503.839844 C 278.984375 503.867188 278.933594 503.925781 278.875 503.957031 C 287.363281 507.300781 296.273438 513.121094 303.605469 521.34375 C 287.789063 515.1875 270.070313 511.65625 253.410156 511.414063 C 247.914063 511.488281 242.171875 511.816406 236.53125 512.359375 C 236.429688 512.367188 236.328125 512.378906 236.214844 512.386719 C 235.199219 512.484375 234.1875 512.585938 233.175781 512.703125 C 232.992188 512.722656 232.808594 512.742188 232.617188 512.761719 C 231.644531 512.871094 230.671875 512.988281 229.710938 513.113281 C 229.550781 513.128906 229.398438 513.152344 229.234375 513.171875 C 226.269531 513.550781 223.382813 513.984375 220.628906 514.457031 C 220.386719 514.503906 220.144531 514.542969 219.910156 514.585938 C 219.273438 514.699219 218.65625 514.8125 218.042969 514.929688 C 217.558594 515.019531 217.082031 515.109375 216.613281 515.207031 C 216.070313 515.3125 215.535156 515.421875 215.007813 515.535156 C 214.488281 515.644531 213.976563 515.753906 213.46875 515.859375 C 212.992188 515.96875 212.519531 516.078125 212.054688 516.1875 C 211.515625 516.316406 210.996094 516.441406 210.472656 516.570313 C 210.0625 516.667969 209.652344 516.773438 209.265625 516.878906 C 208.6875 517.027344 208.128906 517.179688 207.585938 517.335938 C 207.28125 517.421875 206.957031 517.507813 206.664063 517.597656 C 205.835938 517.84375 205.039063 518.09375 204.292969 518.347656 C 228.128906 515.390625 251.109375 517.601563 270.976563 522.765625 C 277.828125 523.820313 290.609375 525.386719 299.628906 528.917969 C 315.925781 534.878906 323.675781 544.84375 327.484375 556.582031 C 328.550781 557.289063 329.59375 558.015625 330.613281 558.761719 L 330.613281 66.511719 C 277.90625 77.929688 245.542969 93.769531 222.859375 105.03125 C 206.054688 112.71875 173.238281 137.421875 167.964844 146.558594 C 162.359375 156.285156 155.898438 165.480469 155.640625 179.699219 C 155.5625 184.246094 157.1875 189.222656 156.492188 194.136719 C 156.089844 197.023438 150.984375 199.839844 148.417969 202.210938 C 127.125 221.863281 113.929688 251.070313 117.417969 290.988281 C 88.003906 329.082031 44.886719 367.695313 21.238281 412.472656 C 14.066406 426.058594 3.628906 445.140625 0 460.46875 L 0 470.238281 C 3.003906 496.320313 28.390625 505.015625 46.308594 519.9375 C 59.535156 530.96875 82.363281 543.3125 91.082031 558.59375 C 93.683594 563.148438 97.164063 572.011719 99.996094 573.886719 C 105.769531 577.675781 117.21875 575.148438 123.789063 576.433594 C 127.679688 577.199219 129.035156 580.777344 133.5625 583.65625 C 137.136719 585.941406 141.964844 588.015625 145.453125 589.175781 C 148.785156 590.300781 172.050781 596.886719 173.488281 590.882813 C 174.335938 587.320313 171.121094 587.390625 168.390625 585.355469 C 159.992188 579.09375 157.003906 567.117188 152.257813 559.015625 C 163.113281 551.882813 180.167969 545.027344 194.714844 540.332031 C 199.898438 538.660156 206.296875 535.457031 210.4375 535.65625 C 216.378906 535.945313 223.527344 543.367188 226.582031 546.707031 C 219.769531 563.214844 217.207031 590.027344 221.484375 611.265625 C 220.332031 613.703125 217.617188 615.234375 215.535156 617.210938 C 213.292969 619.339844 211.148438 621.625 209.171875 624.003906 C 205.015625 629 202.972656 635.226563 198.554688 639.722656 C 195.347656 635.125 193.539063 629.496094 191.324219 622.738281 C 190 618.664063 188.453125 605.476563 184.527344 604.894531 C 181.011719 604.371094 178.996094 609.933594 177.734375 612.960938 C 173.1875 623.910156 170.101563 637.351563 171.371094 651.199219 C 158.519531 648.875 156.390625 660.132813 155.222656 669.890625 C 152.558594 692.003906 153.742188 716.953125 162.441406 730.625 C 168.183594 739.660156 178.167969 747.449219 188.746094 752.773438 C 192.832031 754.832031 219.375 759.421875 233.242188 768.097656 C 264.378906 787.5625 297.265625 801.703125 330.613281 811.542969 L 330.613281 799.457031 C 299.140625 789.121094 267.171875 769.546875 240.300781 756.804688 C 240.125 756.804688 239.902344 756.773438 239.746094 756.785156 C 239.910156 756.769531 240.0625 756.785156 240.230469 756.773438 C 240.253906 756.785156 240.277344 756.796875 240.300781 756.804688 C 244.753906 756.804688 255.0625 760.648438 260.691406 762.007813 C 282.054688 767.1875 305.460938 772.425781 330.613281 773.945313 L 330.613281 769.363281 Z M 195.84375 298.445313 C 196.730469 291.4375 200.53125 284.597656 208.160156 288.667969 C 210.210938 302.757813 209.777344 321.964844 194.144531 320.101563 C 180.371094 318.46875 173.984375 302.519531 170.359375 289.945313 C 171.714844 288.472656 174.234375 288.160156 176.71875 287.824219 C 180.785156 298.914063 185.25 309.59375 194.570313 315.429688 C 197.675781 311.542969 195.105469 304.222656 195.84375 298.445313 Z M 182.828125 618.90625 C 188.191406 636.070313 195.023438 651.738281 204.488281 664.789063 C 198.929688 667.78125 189.136719 670.195313 181.554688 667.335938 C 175.441406 653.945313 177.523438 631.523438 182.828125 618.90625 Z M 241.894531 616.5 C 245.871094 597.632813 244.179688 575.882813 251.46875 564.929688 C 256.625 557.191406 280.792969 549.179688 288.140625 560.726563 C 293.378906 568.921875 285.011719 577.738281 280.183594 581.730469 C 275.714844 585.417969 268.03125 588.324219 266.667969 593.679688 C 265.660156 597.667969 267.660156 602.210938 267.703125 605.296875 C 267.953125 621.289063 256.835938 632.203125 248.730469 638.914063 C 240.429688 645.761719 231.316406 650.445313 220.136719 652.410156 C 229.199219 644.757813 238.089844 634.496094 241.894531 616.5 Z M 158.625 585.355469 C 146.414063 583.539063 136.367188 579.5625 130.15625 571.765625 C 135.871094 568.683594 140.425781 564.472656 146.734375 561.984375 C 149.21875 570.964844 154.996094 578.921875 158.625 585.355469 Z M 264.523438 338.933594 C 284.039063 332.644531 296.582031 319.347656 306.570313 303.511719 C 310.988281 333.554688 288.542969 349.914063 264.523438 338.933594 Z M 264.523438 338.933594 "/>
<path style=" stroke:none;fill-rule:evenodd;fill:rgb(19.213867%,19.213867%,18.821716%);fill-opacity:1;" d="M 634.738281 278.273438 C 634.78125 278.257813 634.808594 278.257813 634.851563 278.238281 C 634.820313 278.257813 634.78125 278.261719 634.738281 278.273438 Z M 634.738281 278.273438 "/>
<g clip-path="url(#clip1)" clip-rule="nonzero">
<path style=" stroke:none;fill-rule:evenodd;fill:rgb(19.213867%,19.213867%,18.821716%);fill-opacity:1;" d="M 340.753906 22.820313 C 336.90625 24.289063 334.117188 25.640625 332.652344 26.960938 C 331.230469 28.308594 330.691406 29.230469 330.613281 31.859375 L 330.613281 850.871094 C 330.625 853.023438 331.582031 854.675781 333.4375 856.304688 C 335.265625 857.898438 337.960938 859.140625 340.382813 859.78125 C 345.957031 861.285156 396.707031 875.316406 461.730469 875.316406 C 526.679688 875.367188 569.890625 862.996094 577.078125 859.945313 C 581.058594 858.296875 583.910156 856.921875 585.351563 855.632813 C 586.738281 854.304688 587.21875 853.53125 587.320313 850.871094 L 587.320313 31.859375 C 587.269531 29.5 586.519531 28.179688 584.859375 26.671875 C 583.179688 25.199219 580.46875 23.910156 577.339844 22.878906 C 571.25 20.820313 518.699219 7.371094 459.074219 7.410156 C 458.941406 7.410156 458.816406 7.410156 458.6875 7.410156 C 399.246094 7.410156 347.71875 20.070313 340.753906 22.820313 Z M 338.429688 867.023438 C 335.140625 866.128906 331.566406 864.566406 328.558594 862.003906 C 325.570313 859.484375 323.09375 855.632813 323.109375 850.871094 L 323.109375 31.859375 C 323.03125 27.570313 324.828125 23.738281 327.707031 21.320313 C 330.542969 18.859375 334.023438 17.398438 338.046875 15.820313 C 346.804688 12.488281 398.179688 -0.0390625 459.074219 -0.101563 C 519.960938 -0.0703125 572.46875 13.371094 579.71875 15.769531 C 583.28125 16.96875 586.828125 18.480469 589.769531 20.988281 C 592.699219 23.449219 594.878906 27.300781 594.828125 31.859375 L 594.828125 850.871094 C 594.921875 855.125 593.140625 858.9375 590.261719 861.304688 C 587.441406 863.714844 584.019531 865.148438 579.980469 866.863281 L 579.988281 866.863281 C 571.140625 870.523438 527.820313 882.785156 461.730469 882.820313 C 395.679688 882.820313 344.222656 868.578125 338.429688 867.023438 Z M 338.429688 867.023438 "/>
</g>
</g>
</svg>
